<svg width="64" height="64" viewBox="0 0 64 64" fill="none" xmlns="http://www.w3.org/2000/svg">
<path d="M57.6275 30.3025C55.9411 27.3777 46.6658 12.7007 30.9085 13.175C16.337 13.5439 7.905 26.35 5.61255 30.3025C5.38128 30.7031 5.25953 31.1575 5.25953 31.62C5.25953 32.0825 5.38128 32.5369 5.61255 32.9375C7.2726 35.8097 16.1526 50.065 31.6727 50.065H32.3315C46.903 49.6961 55.3614 36.89 57.6275 32.9375C57.8587 32.5369 57.9805 32.0825 57.9805 31.62C57.9805 31.1575 57.8587 30.7031 57.6275 30.3025V30.3025ZM32.1997 44.795C20.8429 45.0585 13.4385 35.3354 11.1197 31.62C13.7547 27.3777 20.6321 18.7085 31.1721 18.445C42.4762 18.1552 49.9069 27.9047 52.2521 31.62C49.538 35.8624 42.7397 44.5315 32.1997 44.795V44.795Z" fill="#231F20"/>
<path d="M31.62 22.3975C29.796 22.3975 28.0129 22.9384 26.4963 23.9518C24.9796 24.9652 23.7975 26.4055 23.0995 28.0907C22.4015 29.7759 22.2189 31.6302 22.5747 33.4192C22.9306 35.2082 23.8089 36.8515 25.0987 38.1413C26.3885 39.4311 28.0318 40.3094 29.8208 40.6653C31.6098 41.0211 33.4641 40.8385 35.1493 40.1405C36.8345 39.4424 38.2748 38.2604 39.2882 36.7437C40.3016 35.2271 40.8425 33.444 40.8425 31.62C40.8425 29.174 39.8708 26.8283 38.1413 25.0987C36.4117 23.3692 34.066 22.3975 31.62 22.3975V22.3975ZM31.62 35.5725C30.8383 35.5725 30.0741 35.3407 29.4241 34.9064C28.7741 34.4721 28.2675 33.8548 27.9684 33.1326C27.6692 32.4103 27.5909 31.6156 27.7434 30.8489C27.896 30.0822 28.2724 29.3779 28.8252 28.8252C29.3779 28.2724 30.0822 27.896 30.8489 27.7434C31.6156 27.5909 32.4103 27.6692 33.1326 27.9684C33.8548 28.2675 34.4721 28.7741 34.9064 29.4241C35.3407 30.0741 35.5725 30.8383 35.5725 31.62C35.5725 32.6683 35.1561 33.6736 34.4148 34.4148C33.6736 35.1561 32.6683 35.5725 31.62 35.5725Z" fill="#231F20"/>
</svg>
