<svg width="64" height="64" viewBox="0 0 64 64" fill="none" xmlns="http://www.w3.org/2000/svg">
<path d="M12.4109 8.66916C12.1652 8.42347 11.8735 8.22859 11.5525 8.09562C11.2315 7.96266 10.8875 7.89423 10.54 7.89423C10.1926 7.89423 9.84851 7.96266 9.52751 8.09562C9.2065 8.22859 8.91484 8.42347 8.66915 8.66916C8.17297 9.16534 7.89422 9.8383 7.89422 10.54C7.89422 11.2417 8.17297 11.9147 8.66915 12.4109L23.5042 27.2459C22.5656 28.9919 22.2146 30.9939 22.5031 32.955C22.7917 34.9162 23.7044 36.7322 25.1061 38.1339C26.5078 39.5356 28.3238 40.4483 30.285 40.7369C32.2462 41.0254 34.2481 40.6744 35.9941 39.7358L50.8292 54.5709C51.0741 54.8178 51.3655 55.0139 51.6866 55.1476C52.0077 55.2814 52.3521 55.3503 52.7 55.3503C53.0479 55.3503 53.3923 55.2814 53.7134 55.1476C54.0345 55.0139 54.3259 54.8178 54.5708 54.5709C54.8178 54.3259 55.0139 54.0345 55.1476 53.7134C55.2814 53.3923 55.3503 53.0479 55.3503 52.7C55.3503 52.3522 55.2814 52.0077 55.1476 51.6866C55.0139 51.3655 54.8178 51.0741 54.5708 50.8292L12.4109 8.66916ZM31.62 35.5725C30.5717 35.5725 29.5664 35.1561 28.8252 34.4148C28.0839 33.6736 27.6675 32.6683 27.6675 31.62C27.6675 31.62 27.6675 31.4883 27.6675 31.4356L31.7781 35.5462L31.62 35.5725Z" fill="#231F20"/>
<path d="M32.1997 44.795C20.8692 45.0585 13.4385 35.3354 11.1197 31.62C12.7704 28.9868 14.7543 26.5778 17.0221 24.4528L13.175 20.7375C10.2009 23.5397 7.65311 26.7622 5.61255 30.3025C5.38128 30.7031 5.25953 31.1575 5.25953 31.62C5.25953 32.0825 5.38128 32.5369 5.61255 32.9375C7.2726 35.8097 16.1526 50.065 31.6727 50.065H32.3315C35.2498 49.9784 38.1305 49.3809 40.8425 48.2996L36.6792 44.1363C35.2151 44.5214 33.7127 44.7424 32.1997 44.795Z" fill="#231F20"/>
<path d="M57.6275 30.3025C55.9411 27.3777 46.6395 12.7007 30.9085 13.175C27.9902 13.2616 25.1095 13.8591 22.3975 14.9405L26.5608 19.1038C28.0249 18.7186 29.5273 18.4977 31.0403 18.445C42.3444 18.1552 49.7752 27.9047 52.1203 31.62C50.4288 34.2611 48.4003 36.6704 46.0861 38.7872L50.065 42.5026C53.0764 39.7077 55.66 36.4848 57.7328 32.9375C57.9483 32.5277 58.052 32.0685 58.0335 31.6059C58.015 31.1433 57.8749 30.6937 57.6275 30.3025V30.3025Z" fill="#231F20"/>
</svg>
